<svg height="512" viewBox="0 0 64 64" width="512" xmlns="http://www.w3.org/2000/svg"><g id="_20-Api" data-name="20-Api"><path d="m1 4h62v44h-62z" fill="#cdebfc"/><path d="m45.322 28.639a19.944 19.944 0 0 1 -9.493.687c-5.249-.7-10.286-2.5-15.485-3.506s-10.844-1.133-15.519 1.345a19.226 19.226 0 0 0 -3.825 2.754v18.081h62v-28.726a16.36 16.36 0 0 0 -5.244 1.478c-4.445 2.118-7.813 6.188-12.434 7.887z" fill="#a7ddfa"/><path d="m1 42h62v6h-62z" fill="#e9edf5"/><path d="m1 42h62v2h-62z" fill="#cdd2e1"/><path d="m42 56h-20l2-8h16z" fill="#cdd2e1"/><rect fill="#e9edf5" height="4" rx="1" width="28" x="18" y="56"/><path d="m40 48h-16l-.5 2h17z" fill="#afb4c8"/><path d="m46 25v-4l-4.278-.306a9.936 9.936 0 0 0 -1.222-2.937l2.81-3.242-2.829-2.829-3.238 2.814a9.936 9.936 0 0 0 -2.937-1.218l-.306-4.282h-4l-.306 4.278a9.936 9.936 0 0 0 -2.937 1.222l-3.242-2.81-2.829 2.829 2.81 3.242a9.936 9.936 0 0 0 -1.218 2.937l-4.278.302v4l4.278.306a9.936 9.936 0 0 0 1.222 2.937l-2.81 3.242 2.829 2.829 3.242-2.81a9.936 9.936 0 0 0 2.937 1.218l.302 4.278h4l.306-4.278a9.936 9.936 0 0 0 2.937-1.222l3.242 2.81 2.829-2.829-2.814-3.238a9.936 9.936 0 0 0 1.218-2.937zm-14 3a5 5 0 1 1 5-5 5 5 0 0 1 -5 5z" fill="#f6f6f6"/><circle cx="9" cy="12" fill="#e9edf5" r="3"/><circle cx="9" cy="34" fill="#e9edf5" r="3"/><circle cx="55" cy="12" fill="#e9edf5" r="3"/><circle cx="55" cy="34" fill="#e9edf5" r="3"/><g fill="#6cc1e6"><path d="m9 16a4 4 0 1 1 4-4 4 4 0 0 1 -4 4zm0-6a2 2 0 1 0 2 2 2 2 0 0 0 -2-2z"/><path d="m55 16a4 4 0 1 1 4-4 4 4 0 0 1 -4 4zm0-6a2 2 0 1 0 2 2 2 2 0 0 0 -2-2z"/><path d="m55 38a4 4 0 1 1 4-4 4 4 0 0 1 -4 4zm0-6a2 2 0 1 0 2 2 2 2 0 0 0 -2-2z"/><path d="m9 38a4 4 0 1 1 4-4 4 4 0 0 1 -4 4zm0-6a2 2 0 1 0 2 2 2 2 0 0 0 -2-2z"/><path d="m16 35h-4v-2h3.586l1.707-1.707 1.414 1.414-2 2a1 1 0 0 1 -.707.293z"/><path d="m52 35h-4a1 1 0 0 1 -.707-.293l-2-2 1.414-1.414 1.707 1.707h3.586z"/><path d="m52 23h-3v-2h2.586l2.414-2.414v-3.586h2v4a1 1 0 0 1 -.293.707l-3 3a1 1 0 0 1 -.707.293z"/><path d="m15 23h-3a1 1 0 0 1 -.707-.293l-3-3a1 1 0 0 1 -.293-.707v-4h2v3.586l2.414 2.414h2.586z"/></g></g></svg>